
<svg width="480" height="360" viewBox="0 0 480 360" xmlns="http://www.w3.org/2000/svg">
  <defs>
    <linearGradient id="g1" x1="0" y1="0" x2="1" y2="1">
      <stop offset="0%" stop-color="#2dd4bf"/>
      <stop offset="100%" stop-color="#8b5cf6"/>
    </linearGradient>
    <filter id="blur" x="-20%" y="-20%" width="140%" height="140%">
      <feGaussianBlur stdDeviation="12"/>
    </filter>
  </defs>
  <rect width="480" height="360" fill="#0b1220"/>
  <circle cx="120" cy="40" r="70" fill="#8b5cf6" opacity="0.2" filter="url(#blur)"/>
  <circle cx="440" cy="300" r="100" fill="#2dd4bf" opacity="0.2" filter="url(#blur)"/>
  <g transform="translate(140,70)">
    <rect x="20" y="100" width="180" height="130" rx="16" fill="url(#g1)" opacity="0.9"/>
    <rect x="30" y="110" width="160" height="110" rx="12" fill="#0b1220" opacity="0.95"/>
    <rect x="65" y="120" width="90" height="8" rx="4" fill="#2dd4bf" opacity="0.9"/>
    <rect x="80" y="205" width="60" height="18" rx="9" fill="#2dd4bf" opacity="0.2"/>
    <path d="M60,110 v-30 a50,50 0 0 1 100,0 v30" fill="none" stroke="url(#g1)" stroke-width="16" stroke-linecap="round"/>
    <circle cx="110" cy="165" r="16" fill="#8b5cf6"/>
    <rect x="104" y="165" width="12" height="26" rx="6" fill="#2dd4bf"/>
  </g>
  <g transform="translate(330,90)">
    <circle r="28" fill="#121a2b" stroke="#2dd4bf" stroke-width="2"/>
    <path d="M-6,0 l8,8 l14,-18" fill="none" stroke="#2dd4bf" stroke-width="3" stroke-linecap="round" stroke-linejoin="round"/>
  </g>
</svg>
